<svg xmlns="http://www.w3.org/2000/svg" width="81.898" height="31.989" viewBox="0 0 81.898 31.989"><path fill="#000" d="M47.717 30.662l-8.905-8.908c.424.076.86.119 1.305.119 4.05 0 7.32-3.277 7.32-7.322 0-4.046-3.27-7.32-7.32-7.32-4.046 0-7.324 3.274-7.324 7.32v1.189l-8.436-8.437-23.357 23.359h2.074l8.785-8.789h12.511v-1.464h-11.045l11.032-11.036 8.436 8.437v12.853h1.466v-11.389l11.384 11.388h2.074zm-7.6-21.971c3.236 0 5.857 2.624 5.857 5.859 0 3.234-2.621 5.858-5.857 5.858-3.238 0-5.858-2.624-5.858-5.858 0-3.235 2.62-5.859 5.858-5.859M79.119 22.239c-1.373 4.044-5.201 6.961-9.712 6.961-5.658 0-10.252-4.593-10.252-10.256 0-5.665 4.594-10.252 10.252-10.252 4.511 0 8.339 2.914 9.712 6.958h1.536c-1.421-4.869-5.92-8.42-11.248-8.42-6.469 0-11.715 5.245-11.715 11.714 0 6.471 5.246 11.718 11.715 11.718 5.328 0 9.827-3.557 11.248-8.423h-1.536zm-14.472-9.519c0 6.469-5.243 11.716-11.713 11.716-6.472 0-11.72-5.247-11.72-11.716 0-6.472 5.248-11.72 11.72-11.72 6.47 0 11.713 5.248 11.713 11.72"/></svg>